<?xml version="1.0" encoding="UTF-8" standalone="no"?>
<!-- Created with Inkscape (http://www.inkscape.org/) -->

<svg
   xmlns:dc="http://purl.org/dc/elements/1.1/"
   xmlns:cc="http://creativecommons.org/ns#"
   xmlns:rdf="http://www.w3.org/1999/02/22-rdf-syntax-ns#"
   xmlns:svg="http://www.w3.org/2000/svg"
   xmlns="http://www.w3.org/2000/svg"
   xmlns:sodipodi="http://sodipodi.sourceforge.net/DTD/sodipodi-0.dtd"
   xmlns:inkscape="http://www.inkscape.org/namespaces/inkscape"
   id="svg2"
   sodipodi:docname="stethoscope-colour.svg"
   xml:space="preserve"
   viewBox="0 0 239.29 312.58"
   version="1.1"
   inkscape:version="0.91 r13725"><defs
     id="defs6"><clipPath
       id="clipPath178"
       clipPathUnits="userSpaceOnUse"><path
         id="path180"
         d="m0.06 792h612v-792h-612v792z" /></clipPath><clipPath
       id="clipPath310"
       clipPathUnits="userSpaceOnUse"><path
         id="path312"
         d="m0.06 792h612v-792h-612v792z" /></clipPath><clipPath
       id="clipPath408"
       clipPathUnits="userSpaceOnUse"><path
         id="path410"
         d="m0.06 792h612v-792h-612v792z" /></clipPath><clipPath
       id="clipPath484"
       clipPathUnits="userSpaceOnUse"><path
         id="path486"
         d="m0.06 792h612v-792h-612v792z" /></clipPath><clipPath
       id="clipPath536"
       clipPathUnits="userSpaceOnUse"><path
         id="path538"
         d="m0.06 792h612v-792h-612v792z" /></clipPath><clipPath
       id="clipPath578"
       clipPathUnits="userSpaceOnUse"><path
         id="path580"
         d="m0.06 792h612v-792h-612v792z" /></clipPath><clipPath
       id="clipPath612"
       clipPathUnits="userSpaceOnUse"><path
         id="path614"
         d="m0.06 792h612v-792h-612v792z" /></clipPath><clipPath
       id="clipPath648"
       clipPathUnits="userSpaceOnUse"><path
         id="path650"
         d="m0.06 792h612v-792h-612v792z" /></clipPath></defs><sodipodi:namedview
     id="namedview4"
     bordercolor="#666666"
     inkscape:pageshadow="2"
     guidetolerance="10"
     pagecolor="#ffffff"
     gridtolerance="10"
     inkscape:window-maximized="1"
     inkscape:zoom="0.92458711"
     objecttolerance="10"
     borderopacity="1"
     inkscape:current-layer="g12"
     inkscape:cx="78.061276"
     inkscape:cy="277.94837"
     inkscape:window-y="1"
     inkscape:window-x="4"
     inkscape:window-width="1916"
     showgrid="false"
     inkscape:pageopacity="0"
     inkscape:window-height="1035" /><g
     id="g12"
     inkscape:label="58294main_The.Brain.in.Space"
     inkscape:groupmode="layer"
     transform="matrix(1.25 0 0 -1.25 -90 620.44)"><g
       id="g30646"><g
         clip-path="url(#clipPath178)"
         id="g176"><path
           d="m150.62 404.48c18.814-14.015 33.024-18.78 46.005-16.397 12.98 2.382 17.508 8.446 20.659 17.585 3.15 9.138-1.537 22.58-1.537 22.58l1.473-0.622c0.009-0.022 3.397-8.254 3.265-17.685-0.133-9.474-5.401-22.859-19.702-27.629-11.917-3.975-24.491 0.814-34.154 5.792-9.686 4.991-16.437 10.957-16.455 10.973l0.446 5.403"
           style="fill:#d3d2d2"
           id="path182" /></g><path
         d="m193.95 391.2h6.401v-14.414h-6.401v14.414z"
         style="fill:#ffffff"
         id="path192" /><g
         style="fill:#bdbcbc;fill-opacity:1"
         clip-path="url(#clipPath310)"
         id="g308"><path
           d="m150.62 404.48c18.814-14.015 33.024-18.78 46.005-16.397 12.98 2.382 17.508 8.446 20.659 17.585 3.15 9.138-1.537 22.58-1.537 22.58l1.473-0.622c0.009-0.022 3.397-8.254 3.265-17.685-0.133-9.474-5.401-22.859-19.702-27.629-11.917-3.975-24.491 0.814-34.154 5.792-9.686 4.991-16.437 10.957-16.455 10.973l0.446 5.403z"
           style="stroke:#231f20;stroke-miterlimit:3.864;stroke-width:0.658;fill:#bdbcbc;fill-opacity:1"
           id="path314" /><path
           d="m88.747 370.49c0 9.917 8.04 17.956 17.957 17.956s17.956-8.039 17.956-17.956c0-9.918-8.039-17.957-17.956-17.957s-17.957 8.039-17.957 17.957z"
           style="stroke:#231f20;stroke-miterlimit:3.864;stroke-width:0.658;fill:#bdbcbc;fill-opacity:1"
           id="path316" /><path
           d="m90.184 371.15c0 9.124 7.396 16.52 16.52 16.52s16.52-7.396 16.52-16.52-7.396-16.52-16.52-16.52-16.52 7.396-16.52 16.52z"
           style="stroke:#231f20;stroke-miterlimit:3.864;stroke-width:0.605;fill:#bdbcbc;fill-opacity:1"
           id="path318" /></g><g
         clip-path="url(#clipPath408)"
         id="g406"><path
           d="m92.157 371.53c0 8.719 7.068 15.788 15.788 15.788s15.789-7.069 15.789-15.788c0-8.72-7.069-15.789-15.789-15.789s-15.788 7.069-15.788 15.789z"
           style="stroke:#231f20;stroke-miterlimit:3.864;stroke-width:0.605;fill:none"
           id="path412" /><path
           d="m95.753 373.4c0 6.593 5.344 11.938 11.937 11.938s11.938-5.345 11.938-11.938c0-6.592-5.345-11.937-11.938-11.937s-11.937 5.345-11.937 11.937z"
           style="stroke:#231f20;stroke-miterlimit:3.864;stroke-width:0.658;fill:#d3d2d2;fill-opacity:1"
           id="path414" /></g><g
         clip-path="url(#clipPath484)"
         id="g482"><path
           d="m97.068 373.38c0 6.093 4.939 11.031 11.031 11.031 6.093 0 11.032-4.938 11.032-11.031 0-6.092-4.939-11.031-11.032-11.031-6.092 0-11.031 4.939-11.031 11.031z"
           style="stroke:#231f20;stroke-miterlimit:3.864;stroke-width:0.658;fill:none"
           id="path488" /></g><path
         d="m118.06 373.44c0 5.721-4.643 10.364-10.364 10.364s-10.364-4.643-10.364-10.364 4.643-10.364 10.364-10.364 10.364 4.643 10.364 10.364m-1.101-0.039c0-5.119-4.155-9.273-9.273-9.273-5.119 0-9.273 4.154-9.273 9.273s4.154 9.273 9.273 9.273c5.118 0 9.273-4.154 9.273-9.273"
         style="fill:#dcdbdb"
         id="path500" /><g
         clip-path="url(#clipPath536)"
         id="g534"><path
           d="m98.14 373.4c0 5.275 4.276 9.55 9.55 9.55 5.275 0 9.55-4.275 9.55-9.55 0-5.274-4.275-9.55-9.55-9.55-5.274 0-9.55 4.276-9.55 9.55z"
           style="stroke:#231f20;stroke-miterlimit:3.864;stroke-width:0.658;fill:none"
           id="path540" /></g><path
         d="m106.84 362.46 0.919-0.281-3.47-11.351-0.92 0.281"
         style="fill:#231f20"
         id="path550" /><g
         clip-path="url(#clipPath578)"
         id="g576"><path
           d="m107.69 361.95-3.892-10.978-4.958 1.758 3.892 10.978 4.958-1.758z"
           style="stroke:#231f20;stroke-miterlimit:3.864;stroke-width:0.658;fill:#888888;fill-opacity:1"
           id="path582" /><path
           d="m144.68 476.9s4.096-0.259 4.873-5.779-0.389-5.39-0.389-5.39-4.615-2.531-11.946-3.578c-1.813-0.259-3.577 3.497-4.095 5.002s-1.247 3.707 0.647 4.872c1.894 1.166 6.297 3.578 10.91 4.873"
           style="fill:#ffffff"
           id="path584" /></g><path
         d="m143.39 476.25s4.074-0.259 4.851-5.779c0.777-5.519-0.388-5.39-0.388-5.39"
         style="stroke:#231f20;stroke-miterlimit:3.864;stroke-width:0.658;fill:none"
         id="path594" /><g
         clip-path="url(#clipPath612)"
         id="g610"><path
           d="m144.68 476.9s4.096-0.259 4.873-5.779-0.389-5.39-0.389-5.39-4.615-2.531-11.946-3.578c-1.813-0.259-3.577 3.497-4.095 5.002s-1.247 3.707 0.647 4.872c1.894 1.166 6.297 3.578 10.91 4.873z"
           style="stroke:#231f20;stroke-miterlimit:3.864;stroke-width:0.658;fill:none"
           id="path616" /><path
           d="m215.66 430.93c0.009-0.022 3.407-8.254 3.274-17.685-0.133-9.474-3.848-20.25-18.149-25.021-11.917-3.975-24.656 0.113-34.319 5.091-9.686 4.99-16.437 10.956-16.455 10.972l0.896 0.98s1.658-1.464 4.505-3.542c12.058-8.802 29.697-17.338 44.942-12.253 17.282 5.765 19.456 21.219 15.697 35.82-0.81 3.143-1.634 5.142-1.634 5.142l1.243 0.496"
           style="fill:#231f20"
           id="path618" /><path
           d="m132.35 469.18c0.858 0-10.651-3.577-14.488-13.84-3.166-8.469 10.33-36.866 46.897-75.245l3.122 4.912c-36.567 38.38-49.501 62.272-45.405 70.333 4.095 8.062 12.804 9.357 11.946 9.357 0 0 0.809 1.473 0.34 2.848-0.47 1.376-2.412 1.635-2.412 1.635"
           style="fill:#d3d2d2"
           id="path620" /></g><path
         d="m125.79 433.06s15.084-27.687 38.651-50.099l1.14 1.611s-21.271 18.976-39.791 48.488"
         style="fill:#ffffff"
         id="path630" /><path
         inkscape:connector-curvature="0"
         d="m 103.22973,363.14961 0.919,-0.281 -3.47,-11.351 -0.918996,0.281"
         style="fill:#acacac;fill-opacity:1"
         id="path560" /><g
         clip-path="url(#clipPath648)"
         id="g646"><path
           sodipodi:nodetypes="cccccccc"
           inkscape:connector-curvature="0"
           d="m 132.44412,469.18 c 0.858,0 -10.50983,-3.48288 -14.34683,-13.74588 -3.166,-8.469 10.09471,-36.96012 46.66171,-75.33912 l 3.122,4.912 c -36.567,38.38 -49.501,62.272 -45.405,70.333 4.095,8.062 12.804,9.357 11.946,9.357 0,0 0.809,1.473 0.34,2.848 -0.47,1.376 -2.31788,1.635 -2.31788,1.635 z"
           style="fill:none;stroke:#231f20;stroke-width:0.65799999;stroke-miterlimit:3.86400008"
           id="path652" /><path
           d="m105.45 350.41c-0.138-0.419-6.398-19.599-6.398-26.231 0-9.745 4.401-23.665 14.452-29.665 17.38-10.376 27.174 25.445 66.101-7.329 5.66-4.765 13.187-12.06 19.886-15.082 11.654-5.257 26.32-0.202 30.68 7.648 8.905 16.032 4.976 29.675 2.719 35.434-1.978 5.045-15.802 30.848-20.437 39.46-8.872-2.423-20.141 0.462-32.479 9.442-6.501 4.732-12.853 10.436-18.112 16.553 0 0 1.109 3.364 2.803 4.616 1.379 1.019 4.171 1.394 4.171 1.394 1.538-1.785 28.075-31.159 43.613-22.122 16.07 9.345 8.733 44.122 8.352 45.762 0 0 2.535 2.031 4.484 2.41 1.721 0.335 4.484-0.327 4.484-0.327s2.412-10.355 2.23-22.216c-0.226-14.761-4.44-25.421-11.39-31.24 1.867-3.469 5.167-9.619 8.602-16.114 11.974-22.637 23.793-40.903 9.009-67.522-7.074-12.736-27.267-18.449-42.515-11.57-16.683 7.527-32.28 33.746-51.923 27.447-11.634-3.731-22.192-12.194-34.997-4.549-14.029 8.374-18.939 26.272-18.939 37.57 0 7.24 4.442 21.782 6.861 29.115 0 0 3.202 0.393 5.056-0.288 1.651-0.606 3.687-2.596 3.687-2.596z"
           style="stroke:#231f20;stroke-miterlimit:3.864;stroke-width:0.658;fill:#4b4b7d;fill-opacity:1"
           id="path654" /><path
           d="m104.97 293.3s2.938-4.991 10.75-6.63c4.348-0.912 9.837-0.456 9.837-0.456s-6.851 0.835-10.978 2.281c-3.954 1.386-9.609 4.805-9.609 4.805"
           style="fill:#ffffff"
           id="path656" /><path
           d="m231.92 274.1c7.542 6.63 8.241 18.292 8.241 18.292s3.18-9.837-5.959-19.446-19.205-6.173-19.205-6.173 8.769 0.159 16.923 7.327"
           style="fill:#ffffff"
           id="path658" /><path
           d="m190.28 360.78s7.784-5.717 19.674-4.349c0 0-0.684 1.355-6.172 1.597-5.489 0.242-8.013 1.839-9.153 2.295-1.141 0.457-4.349 0.457-4.349 0.457"
           style="fill:#ffffff"
           id="path660" /><path
           d="m145.54 404.94 7.721-9.534s0.777 4.035 4.889 1.294l-7.756 8.821s-2.995 2.707-4.854-0.581z"
           style="stroke:#231f20;stroke-miterlimit:3.864;stroke-width:0.658;fill:#bdbcbc"
           id="path662" /><path
           d="m228.36 410.73-5.279-2.09c-17.077 57.998-35.349 70.834-38.052 71.992-2.704 1.159-18.977-2.523-18.977-2.523l-2.513 4.823s13.215 2.943 16.931 2.557 6.806 0 10.135-3.716c3.33-3.716 17.761-15.232 31.179-51.45 3.386-9.138 5.616-15.864 6.576-19.593z"
           style="stroke:#231f20;stroke-miterlimit:3.864;stroke-width:0.658;fill:#d3d2d2"
           id="path664" /><path
           d="m219.81 416.49c1.021 7.46 4.808 7.869 4.808 7.869l-3.9 10.748s-5.715 3.56-6.055-4.92l5.147-13.697z"
           style="stroke:#231f20;stroke-miterlimit:3.864;stroke-width:0.658;fill:#bdbcbc"
           id="path666" /><path
           d="m188.47 479.2s7.022-4.155 11.877-12.125c4.854-7.97 10.25-19.304 10.25-19.304s-10.534 18.425-14.021 23.075c-2.032 2.709-8.106 8.354-8.106 8.354"
           style="fill:#ffffff"
           id="path668" /><path
           d="m168.27 475.48c-1.166-1.554-8.32-6.038-11.04-6.685-2.719-0.648-3.966 1.036-4.743 2.46-0.777 1.425-2.027 6.774 0.907 8.579 5.261 3.238 11.169 4.274 11.169 4.274s5.131-1.344 3.707-8.628"
           style="fill:#ffffff"
           id="path670" /><path
           inkscape:connector-curvature="0"
           id="path30644"
           d="m 131.46904,468.69986 0.91763,0.4647 0.78233,-0.22353"
           style="fill:none;fill-rule:evenodd;stroke:#231f20;stroke-width:0.56;stroke-linecap:round;stroke-linejoin:miter;stroke-miterlimit:4;stroke-dasharray:none;stroke-opacity:1" /></g><path
         d="m151.06 474.47c0 3.25 1.815 5.884 4.055 5.884 2.239 0 4.055-2.634 4.055-5.884 0-3.249-1.816-5.884-4.055-5.884-2.24 0-4.055 2.635-4.055 5.884z"
         style="stroke:#231f20;stroke-miterlimit:3.864;stroke-width:0.658;fill:none"
         id="path680" /><path
         sodipodi:nodetypes="cccccc"
         inkscape:connector-curvature="0"
         d="m 168.27,475.48 c -1.166,-1.554 -8.32,-6.038 -11.04,-6.685 -2.719,-0.648 -4.34246,0.98894 -5.11946,2.41294 -0.777,1.425 -1.65054,6.82106 1.28346,8.62606 5.261,3.238 11.169,4.274 11.169,4.274 0,0 5.131,-1.344 3.707,-8.628 z"
         style="fill:none;stroke:#231f20;stroke-width:0.65799999;stroke-miterlimit:3.86400008"
         id="path702" /><path
         d="m154.3 474.47c0 1.203 0.511 2.178 1.142 2.178 0.63 0 1.141-0.975 1.141-2.178 0-1.202-0.511-2.177-1.141-2.177-0.631 0-1.142 0.975-1.142 2.177z"
         style="stroke:#231f20;stroke-miterlimit:3.864;stroke-width:0.658;fill:#231f20"
         id="path704" /></g></g><metadata
     id="metadata30102"><rdf:RDF><cc:Work><dc:format>image/svg+xml</dc:format><dc:type
           rdf:resource="http://purl.org/dc/dcmitype/StillImage" /><cc:license
           rdf:resource="http://creativecommons.org/licenses/publicdomain/" /><dc:publisher><cc:Agent
             rdf:about="http://openclipart.org/"><dc:title>Openclipart</dc:title></cc:Agent></dc:publisher><dc:title>58294main_The.Brain.in.Space-page-127-stethoscope</dc:title><dc:date>2010-04-06T07:38:25</dc:date><dc:description>This is clipart converted and broken apart that has been released into the public domain because the document says so, and its from NASA, a USA government agency. The publication is called &quot;The Brain in Space:&quot;\n\nhttp://www.nasa.gov/audience/foreducators/topnav/materials/listbytype/The.Brain.in.Space.html</dc:description><dc:source>https://openclipart.org/detail/38473/-by-rejon-38473</dc:source><dc:creator><cc:Agent><dc:title>rejon</dc:title></cc:Agent></dc:creator><dc:subject><rdf:Bag><rdf:li>astronomy</rdf:li><rdf:li>brain</rdf:li><rdf:li>converted</rdf:li><rdf:li>doctor</rdf:li><rdf:li>government</rdf:li><rdf:li>hospital</rdf:li><rdf:li>nasa</rdf:li><rdf:li>science</rdf:li><rdf:li>space</rdf:li><rdf:li>stethoscope</rdf:li><rdf:li>usa</rdf:li></rdf:Bag></dc:subject></cc:Work><cc:License
         rdf:about="http://creativecommons.org/licenses/publicdomain/"><cc:permits
           rdf:resource="http://creativecommons.org/ns#Reproduction" /><cc:permits
           rdf:resource="http://creativecommons.org/ns#Distribution" /><cc:permits
           rdf:resource="http://creativecommons.org/ns#DerivativeWorks" /></cc:License></rdf:RDF></metadata></svg>